<?xml version="1.0" encoding="utf-8"?>
<!-- Generator: Adobe Illustrator 25.0.1, SVG Export Plug-In . SVG Version: 6.00 Build 0)  -->
<svg version="1.0" id="Capa_1" xmlns="http://www.w3.org/2000/svg" xmlns:xlink="http://www.w3.org/1999/xlink" x="0px" y="0px"
	 viewBox="0 0 512 270.15" style="enable-background:new 0 0 512 270.15;" xml:space="preserve">
<style type="text/css">
	.st0{fill:none;}
</style>
<g>
	<g>
		<g>
			<path class="st0" d="M362.96,210.2c0,34.52,18.52,53.47,43.79,53.47c27.37,0,53.89-29.05,53.89-57.68v-68.2
				C403.8,142.41,362.96,166.41,362.96,210.2z"/>
		</g>
		<g>
			<path d="M336.86,94.84l0.84,0.42c0.94-1.4,1.91-2.77,2.9-4.09c0.79-2.02,1.57-4.04,2.34-6.07
				C340.72,88.2,338.69,91.46,336.86,94.84z"/>
		</g>
		<g>
			<g>
				<rect x="106.79" y="64.88" class="st0" width="0" height="2.84"/>
			</g>
			<g>
				<path class="st0" d="M336.86,94.84l0.84,0.42c0.94-1.4,1.91-2.77,2.9-4.09c0.79-2.02,1.57-4.04,2.34-6.07
					C340.72,88.2,338.69,91.46,336.86,94.84z"/>
			</g>
			<g>
				<path class="st0" d="M362.96,210.2c0,34.52,18.52,53.47,43.79,53.47c27.37,0,53.89-29.05,53.89-57.68v-68.2
					C403.8,142.41,362.96,166.41,362.96,210.2z"/>
			</g>
			<g>
				<path d="M491.79,256.51V138.2c0-54.31-31.15-86.31-82.1-86.31c-30.91,0-52.71,13.51-66.76,33.2c-0.76,2.03-1.55,4.06-2.34,6.07
					c15.29-20.5,35.63-31.27,58.57-31.27c35.79,0,61.47,30.31,61.47,76.63c-65.68,0-131.36,23.58-131.36,73.68
					c0,37.89,24.84,58.94,68.2,58.94c35.37,0,57.68-28.21,63.15-50.52l3.37,42.94h48v-0.84L491.79,256.51z M460.64,205.99
					c0,28.63-26.52,57.68-53.89,57.68c-25.26,0-43.79-18.95-43.79-53.47c0-43.79,40.84-67.78,97.68-72.42V205.99z"/>
			</g>
			<g>
				<path d="M336.86,94.84c1.84-3.38,3.86-6.64,6.08-9.74c3.15-8.38,6.05-16.91,8.67-25.58h-46.15l-0.42,0.85l38.95,11.85
					c-19.05,60.12-54.61,118.97-105.84,169.35L226.29,59.52h-32.6l8.89,92.29c-13.55,26.25-38.95,61.81-67.74,89.75L122.57,59.52
					H74.31l-0.04,0.08h-0.04L85.93,0L45.29,7.77L35.19,59.76l-32.64,1.2L0.02,73.41h32.33L1.31,223.24
					c-2.94,14.45-0.92,26.45,5.83,34.72c6.51,7.97,17.17,12.19,30.81,12.19c15.64,0,32.44-9.16,39.65-18.01l1.85-2.27l-3.88-11.45
					l-5.96,5.17c-7.47,6.48-15.49,10.35-21.44,10.35c-2.97,0-5.15-0.89-6.67-2.72c-2.42-2.9-3.15-8.12-2.01-14.24L71.73,73.01h19.98
					L109.45,264h2.12c31.75-22.86,68.59-66.47,91.45-107.53L213.17,264h2.12c44.42-32.85,95.08-95.97,125.31-172.83
					c-0.99,1.32-1.96,2.69-2.9,4.09L336.86,94.84z M106.59,67.71L106.59,67.71l0.41-2.81l0,0L106.59,67.71z"/>
			</g>
		</g>
	</g>
</g>
</svg>
